<?xml version="1.0" encoding="utf-8"?>
<!-- Generator: Adobe Illustrator 16.0.4, SVG Export Plug-In . SVG Version: 6.00 Build 0)  -->
<!DOCTYPE svg PUBLIC "-//W3C//DTD SVG 1.1//EN" "http://www.w3.org/Graphics/SVG/1.1/DTD/svg11.dtd">
<svg version="1.1" id="Ebene_1" xmlns="http://www.w3.org/2000/svg" xmlns:xlink="http://www.w3.org/1999/xlink" x="0px" y="0px"
	 width="500px" height="500px" viewBox="0 0 500 500" enable-background="new 0 0 500 500" xml:space="preserve">
<g>
	<path d="M106.051,436.042c0-124.606,0-247.215,0-370.486c59.089,0,117.467-5.122,174.54,1.32
		c68.148,7.69,93.406,85.314,52.184,151.628c5.999,4.746,12.21,9.629,18.384,14.551c37.126,29.599,52.467,75.929,39.809,120.171
		c-13.242,46.274-50.293,80.101-98.416,82.172C231.345,438.04,169.941,436.042,106.051,436.042z M147.112,394.26
		c50.016,0,98.825,2.217,147.311-0.775c32.784-2.025,57.498-33.629,59.638-66.957c2.088-32.531-19.264-68.573-52.521-71.756
		c-51.146-4.889-103.104-1.287-154.428-1.287C147.112,300.393,147.112,346.531,147.112,394.26z M146.684,206.004
		c44.119,0,85.597,2.441,126.612-0.857c27.287-2.198,37.835-19.181,38.593-46.461c0.806-28.888-9.798-48.59-36.494-50.827
		c-42.4-3.553-85.321-0.945-128.709-0.945C146.684,140.758,146.684,172.906,146.684,206.004z"/>
</g>
</svg>
