<?xml version="1.0" encoding="utf-8"?>
<!-- Generator: Adobe Illustrator 16.0.4, SVG Export Plug-In . SVG Version: 6.00 Build 0)  -->
<!DOCTYPE svg PUBLIC "-//W3C//DTD SVG 1.1//EN" "http://www.w3.org/Graphics/SVG/1.1/DTD/svg11.dtd">
<svg version="1.1" id="Ebene_1" xmlns="http://www.w3.org/2000/svg" xmlns:xlink="http://www.w3.org/1999/xlink" x="0px" y="0px"
	 width="500px" height="500px" viewBox="0 0 500 500" enable-background="new 0 0 500 500" xml:space="preserve">
<g>
	<path fill-rule="evenodd" clip-rule="evenodd" d="M0,244.846c24.038-22.368,48.345-44.458,72.021-67.207
		c14.956-14.365,28.972-29.712,46.353-47.656c9.055,11.875,16.797,22.031,25.208,33.062c-26.797,26.123-55.771,54.37-87.388,85.19
		c32.646,31.308,62.305,59.751,93.677,89.833c-11.804,11.715-20.422,20.264-31.45,31.207
		c-33.494-33.834-65.349-66.285-97.585-98.346C14.663,264.787,6.985,260.168,0,254.846C0,251.512,0,248.181,0,244.846z"/>
	<path fill-rule="evenodd" clip-rule="evenodd" d="M500,254.846c-24.035,22.373-48.338,44.473-72.012,67.223
		c-14.956,14.369-28.975,29.717-46.346,47.65c-9.06-11.879-16.804-22.031-26.328-34.512c27.33-25.254,57.061-52.725,89.508-82.709
		c-33.688-32.31-63.343-60.752-94.72-90.85c11.823-11.724,20.444-20.273,31.478-31.211c33.486,33.828,65.339,66.279,97.578,98.345
		c6.169,6.138,13.854,10.747,20.842,16.064C500,248.181,500,251.512,500,254.846z"/>
	<path fill-rule="evenodd" clip-rule="evenodd" d="M249.816,64.036c15.315,0,26.688,0,41.546,0
		c-13.786,124.424-27.386,247.154-41.182,371.669c-13.164,0-25.076,0-41.494,0C222.378,311.984,236.016,188.743,249.816,64.036z"/>
</g>
</svg>
