<?xml version="1.0" encoding="utf-8"?>
<!-- Generator: Adobe Illustrator 16.0.4, SVG Export Plug-In . SVG Version: 6.00 Build 0)  -->
<!DOCTYPE svg PUBLIC "-//W3C//DTD SVG 1.1//EN" "http://www.w3.org/Graphics/SVG/1.1/DTD/svg11.dtd">
<svg version="1.1" id="Ebene_1" xmlns="http://www.w3.org/2000/svg" xmlns:xlink="http://www.w3.org/1999/xlink" x="0px" y="0px"
	 width="500px" height="500px" viewBox="0 0 500 500" enable-background="new 0 0 500 500" xml:space="preserve">
<g>
	<path d="M248.577,104.892c-20.503,0-38.495,0-58.524,0c0-14.03,0-25.896,0-39.775c53.578,0,107.107,0,162.423,0
		c0,12.232,0,24.19,0,39.19c-19.684,0-39.164,0-60.121,0c-14.43,97.741-28.459,192.757-42.92,290.708c20.997,0,40.5,0,61.582,0
		c0,14.778,0,26.812,0,40.646c-54.34,0-107.896,0-163.369,0c0-12.252,0-24.229,0-39.127c17.97,0,36.617,0,57.979,0
		C220.054,298.576,234.125,203.022,248.577,104.892z"/>
</g>
</svg>
