<?xml version="1.0" encoding="utf-8"?>
<!-- Generator: Adobe Illustrator 16.0.4, SVG Export Plug-In . SVG Version: 6.00 Build 0)  -->
<!DOCTYPE svg PUBLIC "-//W3C//DTD SVG 1.1//EN" "http://www.w3.org/Graphics/SVG/1.1/DTD/svg11.dtd">
<svg version="1.1" id="Ebene_1" xmlns="http://www.w3.org/2000/svg" xmlns:xlink="http://www.w3.org/1999/xlink" x="0px" y="0px"
	 width="500px" height="500px" viewBox="0 0 500 500" enable-background="new 0 0 500 500" xml:space="preserve">
<g>
	<path d="M375.789,431.582c-15.854,0-27.229,0-41.724,0c0-110.591,0-220.029,0-330.806c-15.253,0-27.385,0-42.532,0
		c0,110.127,0,219.639,0,330.566c-15.057,0-27.106,0-41.428,0c0-55.132,0-108.916,0-166.074c-24.382,0-46.641,0.748-68.831-0.149
		c-53.03-2.147-92.261-46.357-96.904-97.31c-5.127-56.26,36.174-106.201,91.047-108.276c78.901-2.983,158-0.762,238.967-0.762
		c0,12.949,0,24.956,0,39.277c-11.875,0.742-24.014,1.499-38.596,2.412C375.789,210.278,375.789,319.863,375.789,431.582z
		 M248.804,99.761c-22.475,0-43.872-0.942-65.156,0.22c-32.034,1.753-56.138,26.201-58.34,57.349
		c-2.207,31.206,17.979,60.146,49.81,64.624c24.038,3.384,48.933,0.669,73.686,0.669
		C248.804,181.143,248.804,141.582,248.804,99.761z"/>
</g>
</svg>
