<?xml version="1.0" encoding="utf-8"?>
<!-- Generator: Adobe Illustrator 16.0.4, SVG Export Plug-In . SVG Version: 6.00 Build 0)  -->
<!DOCTYPE svg PUBLIC "-//W3C//DTD SVG 1.1//EN" "http://www.w3.org/Graphics/SVG/1.1/DTD/svg11.dtd">
<svg version="1.1" id="Ebene_1" xmlns="http://www.w3.org/2000/svg" xmlns:xlink="http://www.w3.org/1999/xlink" x="0px" y="0px"
	 width="500px" height="500px" viewBox="0 0 500 500" enable-background="new 0 0 500 500" xml:space="preserve">
<g>
	<path d="M126.302,394.648c-30.638,0-56.144,0-84.527,0c0-13.356,0-24.771,0-36.185c0.002-90.649,0.139-181.306-0.139-271.961
		c-0.042-13.728,0.112-23.708,19.003-23.61c128.076,0.663,256.157,0.39,384.235,0.517c3.222,0,6.442,1.092,11.454,2.003
		c0,108.701,0,217.177,0,328.56c-8.391,0.441-17.109,1.284-25.83,1.301c-66.535,0.11-133.09-0.806-199.587,0.81
		c-13.065,0.316-28.333,7.446-38.342,16.252c-21.759,19.142-40.781,41.397-66.268,67.946
		C126.302,447.98,126.302,423.099,126.302,394.648z M149.715,307.756c1.342,2.676,2.685,5.355,4.028,8.036
		c13.147-3.946,30.221-3.967,38.766-12.521c37.345-37.356,45.008-83.848,33.881-135.2c-26.213,0-52.23,0-79.274,0
		c0,27.748,0,53.834,0,80.812c13.004,0.799,24.697,1.521,39.007,2.402C172.74,272.041,161.228,289.896,149.715,307.756z
		 M311.803,249.805c-14.166,21.987-25.937,40.261-37.711,58.536c1.023,1.964,2.045,3.923,3.068,5.882
		c12.89-2.484,30.154-0.535,37.928-8.205c38.782-38.278,47.525-85.842,36.042-137.438c-27.336,0-53.342,0-78.709,0
		c0,28.245,0,54.292,0,81.226C285.052,249.805,295.761,249.805,311.803,249.805z"/>
</g>
</svg>
