<?xml version="1.0" encoding="utf-8"?>
<!-- Generator: Adobe Illustrator 16.0.4, SVG Export Plug-In . SVG Version: 6.00 Build 0)  -->
<!DOCTYPE svg PUBLIC "-//W3C//DTD SVG 1.1//EN" "http://www.w3.org/Graphics/SVG/1.1/DTD/svg11.dtd">
<svg version="1.1" id="Ebene_1" xmlns="http://www.w3.org/2000/svg" xmlns:xlink="http://www.w3.org/1999/xlink" x="0px" y="0px"
	 width="500px" height="500px" viewBox="0 0 500 500" enable-background="new 0 0 500 500" xml:space="preserve">
<g>
	<path d="M464.584,148.443c0,64.56,0,123.725,0,182.934c-60.959,0-119.907,0-178.854,0c-1.898-2.627-3.794-5.254-5.691-7.881
		c24.951-21.178,49.9-42.357,75.227-63.852c-41.979-33.724-84.943-46.579-132.184-38.875
		c-65.237,10.643-108.157,50.198-133.967,111.167c-16.461-5.435-31.023-10.239-45.35-14.972
		c28.535-116.707,199.418-213.619,353.68-91.771C419.039,200.508,440.518,175.952,464.584,148.443z"/>
</g>
</svg>
