<?xml version="1.0" encoding="utf-8"?>
<!-- Generator: Adobe Illustrator 16.0.4, SVG Export Plug-In . SVG Version: 6.00 Build 0)  -->
<!DOCTYPE svg PUBLIC "-//W3C//DTD SVG 1.1//EN" "http://www.w3.org/Graphics/SVG/1.1/DTD/svg11.dtd">
<svg version="1.1" id="Ebene_1" xmlns="http://www.w3.org/2000/svg" xmlns:xlink="http://www.w3.org/1999/xlink" x="0px" y="0px"
	 width="500px" height="500px" viewBox="0 0 500 500" enable-background="new 0 0 500 500" xml:space="preserve">
<g>
	<path fill-rule="evenodd" clip-rule="evenodd" d="M230.069,288.979c-36.912,0-139.187,0-173.252,0c0-13.696,0-25.752,0-40.825
		c32.637,0,136.252,0,171.206,0c0-49.873,0-96.763,0-145.845c-47.59,0-93.867,0-142.234,0c0-14.004,0-25.913,0-39.932
		c108.821,0,218.042,0,328.913,0c0,12.471,0,24.448,0,39.404c-47.739,0-94.699,0-142.866,0c0,49.229,0,95.508,0,144.854
		c33.501,0,137.068,0,171.854,0c0,15.044,0,27.051,0,41.655c-33.621,0-136.514,0-172.059,0c0,49.478,0,96.479,0,145.225
		c-14.722,0-26.743,0-41.562,0C230.069,386.147,230.069,339.189,230.069,288.979z"/>
</g>
</svg>
