<?xml version="1.0" encoding="utf-8"?>
<!-- Generator: Adobe Illustrator 16.0.4, SVG Export Plug-In . SVG Version: 6.00 Build 0)  -->
<!DOCTYPE svg PUBLIC "-//W3C//DTD SVG 1.1//EN" "http://www.w3.org/Graphics/SVG/1.1/DTD/svg11.dtd">
<svg version="1.1" id="Ebene_1" xmlns="http://www.w3.org/2000/svg" xmlns:xlink="http://www.w3.org/1999/xlink" x="0px" y="0px"
	 width="500px" height="500px" viewBox="0 0 500 500" enable-background="new 0 0 500 500" xml:space="preserve">
<g>
	<path fill-rule="evenodd" clip-rule="evenodd" d="M124.998,42.815c14.368,0,25.698,0,39.849,0
		c0.515,9.209,1.414,17.969,1.433,26.733c0.129,57.422-0.19,114.849,0.144,172.271c0.317,54.351,35.237,92.349,83.881,92.085
		c48.694-0.264,82.938-38.121,83.24-92.793c0.314-56.587,0.073-113.184,0.075-169.775c0-8.916,0-17.837,0-28.198
		c14.266,0,25.625,0,39.217,0c0.661,5.601,2.028,11.851,2.046,18.105c0.151,62.417,0.547,124.839-0.052,187.251
		c-0.681,71.387-54.927,126.407-123.972,126.831c-70.19,0.43-125.205-54.936-125.752-127.534
		C124.597,180.417,124.998,113.044,124.998,42.815z"/>
	<path fill-rule="evenodd" clip-rule="evenodd" d="M374.292,418.621c0,13.5,0,25.043,0,38.564c-82.498,0-164.333,0-247.747,0
		c0-12.369,0-24.473,0-38.564C208.171,418.621,290.007,418.621,374.292,418.621z"/>
</g>
</svg>
