<?xml version="1.0" encoding="utf-8"?>
<!-- Generator: Adobe Illustrator 16.0.4, SVG Export Plug-In . SVG Version: 6.00 Build 0)  -->
<!DOCTYPE svg PUBLIC "-//W3C//DTD SVG 1.1//EN" "http://www.w3.org/Graphics/SVG/1.1/DTD/svg11.dtd">
<svg version="1.1" id="Ebene_1" xmlns="http://www.w3.org/2000/svg" xmlns:xlink="http://www.w3.org/1999/xlink" x="0px" y="0px"
	 width="500px" height="500px" viewBox="0 0 500 500" enable-background="new 0 0 500 500" xml:space="preserve">
<g>
	<path fill-rule="evenodd" clip-rule="evenodd" d="M110.905,225.195c154.261-121.848,325.144-24.936,353.679,91.771
		c-14.326,4.732-28.889,9.537-45.35,14.971c-25.809-60.969-68.729-100.524-133.967-111.167
		c-47.239-7.704-90.205,5.151-132.183,38.874c25.326,21.494,50.276,42.674,75.227,63.852c-1.898,2.627-3.794,5.254-5.692,7.881
		c-58.946,0-117.894,0-178.854,0c0-59.209,0-118.374,0-182.934C67.832,175.952,89.31,200.508,110.905,225.195z"/>
</g>
</svg>
